#define close_width 12
#define close_height 7
static unsigned char close_bits[] = {
   0x00, 0x00, 0x98, 0x01, 0x98, 0x01, 0x00, 0x00, 0x98, 0x01, 0x98, 0x01,
   0x00, 0x00 };
